<svg id="Menu_Pack_1" data-name="Menu Pack 1" xmlns="http://www.w3.org/2000/svg" viewBox="0 0 44.38 44.38"><defs><style>.cls-1{fill:#fff;}</style></defs><title>Logo Solo</title><path class="cls-1" d="M101.72,25.6a1.43,1.43,0,0,0,.47-1.18,1.41,1.41,0,0,0-.47-1.16,2.31,2.31,0,0,0-1.47-.38H98.4V26h1.85A2.31,2.31,0,0,0,101.72,25.6Z" transform="translate(-68.54 -10.6)"/><path class="cls-1" d="M89.21,30.06a2.25,2.25,0,0,0,1.95-.92,4.63,4.63,0,0,0,.67-2.72,4.63,4.63,0,0,0-.67-2.72,2.25,2.25,0,0,0-1.95-.92,2.27,2.27,0,0,0-2,.92,4.58,4.58,0,0,0-.68,2.72,4.58,4.58,0,0,0,.68,2.72A2.27,2.27,0,0,0,89.21,30.06Z" transform="translate(-68.54 -10.6)"/><path class="cls-1" d="M112,10.6H69.49a1,1,0,0,0-1,1V54a1,1,0,0,0,1,1H112a1,1,0,0,0,1-1V11.55A1,1,0,0,0,112,10.6Zm-16.62,10h5.38a5,5,0,0,1,3.36,1,3.59,3.59,0,0,1,1.17,2.89,3.43,3.43,0,0,1-1.17,2.78,5.08,5.08,0,0,1-3.36,1H98.4v4.07H95.35V20.56Zm-21.91,0H84.15v2.36H80.33v9.36H77.27V22.92H73.43V20.56ZM84.13,35.83H80.31v9.36H77.25V35.83H73.41V33.47H84.13v2.36Zm-0.67-9.41a7.06,7.06,0,0,1,.69-3.24,4.82,4.82,0,0,1,2-2.08,6.91,6.91,0,0,1,6.14,0,4.84,4.84,0,0,1,2,2.08,7.06,7.06,0,0,1,.69,3.24,7.06,7.06,0,0,1-.69,3.24,4.84,4.84,0,0,1-2,2.08,6.91,6.91,0,0,1-6.14,0,4.82,4.82,0,0,1-2-2.08A7.06,7.06,0,0,1,83.45,26.42Zm4,18.77H84.41V33.47h6.22l2.15,7.09L92.9,41l-1.31,4.2L87.47,33.62V45.19Zm20.95-9.36h-6.08v2.38h4.83v2.22h-4.83v2.4h6.08v2.36H99.28V33.47l-4.1,11.73H92.4l3.82-11.73h12.19v2.36Z" transform="translate(-68.54 -10.6)"/></svg>